<?xml version="1.0" encoding="UTF-8" standalone="no"?>
<!-- Created with Inkscape (http://www.inkscape.org/) -->

<svg
   xmlns:osb="http://www.openswatchbook.org/uri/2009/osb"
   xmlns:dc="http://purl.org/dc/elements/1.1/"
   xmlns:cc="http://creativecommons.org/ns#"
   xmlns:rdf="http://www.w3.org/1999/02/22-rdf-syntax-ns#"
   xmlns:svg="http://www.w3.org/2000/svg"
   xmlns="http://www.w3.org/2000/svg"
   xmlns:xlink="http://www.w3.org/1999/xlink"
   xmlns:sodipodi="http://sodipodi.sourceforge.net/DTD/sodipodi-0.dtd"
   xmlns:inkscape="http://www.inkscape.org/namespaces/inkscape"
   width="210mm"
   height="297mm"
   viewBox="0 0 210 297"
   version="1.1"
   id="svg999"
   inkscape:version="0.92.4 (5da689c313, 2019-01-14)"
   sodipodi:docname="Logo1.2wip.svg">
  <defs
     id="defs993">
    <linearGradient
       id="linearGradient4090"
       osb:paint="solid">
      <stop
         style="stop-color:#9c9c9c;stop-opacity:1;"
         offset="0"
         id="stop4088" />
    </linearGradient>
    <linearGradient
       inkscape:collect="always"
       id="linearGradient4018">
      <stop
         style="stop-color:#000000;stop-opacity:1;"
         offset="0"
         id="stop4014" />
      <stop
         style="stop-color:#000000;stop-opacity:0;"
         offset="1"
         id="stop4016" />
    </linearGradient>
    <linearGradient
       id="linearGradient3996"
       osb:paint="solid">
      <stop
         style="stop-color:#000000;stop-opacity:1;"
         offset="0"
         id="stop3994" />
    </linearGradient>
    <meshgradient
       inkscape:collect="always"
       id="meshgradient3768"
       gradientUnits="userSpaceOnUse"
       x="85.036498"
       y="188.25792">
      <meshrow
         id="meshrow3770">
        <meshpatch
           id="meshpatch3772">
          <stop
             path="l 23.1628,-137.913"
             style="stop-color:#ffffff;stop-opacity:1"
             id="stop3774" />
          <stop
             path="l 6.69729,71.767"
             style="stop-color:#000000;stop-opacity:1"
             id="stop3776" />
          <stop
             path="l 0,0"
             style="stop-color:#ffffff;stop-opacity:1"
             id="stop3778" />
          <stop
             path="l -29.8601,66.1458"
             style="stop-color:#000000;stop-opacity:1"
             id="stop3780" />
        </meshpatch>
        <meshpatch
           id="meshpatch3782">
          <stop
             path="l -58.6946,103.244"
             id="stop3784" />
          <stop
             path="l 65.3919,-31.4769"
             style="stop-color:#ffffff;stop-opacity:1"
             id="stop3786" />
          <stop
             path="l 0,0"
             style="stop-color:#000000;stop-opacity:1"
             id="stop3788" />
        </meshpatch>
        <meshpatch
           id="meshpatch3790">
          <stop
             path="l 106.392,-90.7586"
             id="stop3792" />
          <stop
             path="l -41.0005,59.2816"
             style="stop-color:#000000;stop-opacity:1"
             id="stop3794" />
          <stop
             path="l 0,0"
             style="stop-color:#ffffff;stop-opacity:1"
             id="stop3796" />
        </meshpatch>
        <meshpatch
           id="meshpatch3798">
          <stop
             path="l -111.327,41.3612"
             id="stop3800" />
          <stop
             path="l 70.3261,17.9204"
             style="stop-color:#ffffff;stop-opacity:1"
             id="stop3802" />
          <stop
             path="l 0,0"
             style="stop-color:#000000;stop-opacity:1"
             id="stop3804" />
        </meshpatch>
        <meshpatch
           id="meshpatch3806">
          <stop
             path="l 139.84,-1.13737"
             id="stop3808" />
          <stop
             path="l -69.5137,19.0577"
             style="stop-color:#000000;stop-opacity:1"
             id="stop3810" />
          <stop
             path="l 0,0"
             style="stop-color:#ffffff;stop-opacity:1"
             id="stop3812" />
        </meshpatch>
        <meshpatch
           id="meshpatch3814">
          <stop
             path="l -111.868,-39.8748"
             id="stop3816" />
          <stop
             path="l 42.3539,58.9325"
             style="stop-color:#ffffff;stop-opacity:1"
             id="stop3818" />
          <stop
             path="l 0,0"
             style="stop-color:#000000;stop-opacity:1"
             id="stop3820" />
        </meshpatch>
        <meshpatch
           id="meshpatch3822">
          <stop
             path="l 107.855,89.016"
             id="stop3824" />
          <stop
             path="l -65.5007,-30.0835"
             style="stop-color:#000000;stop-opacity:1"
             id="stop3826" />
          <stop
             path="l 0,0"
             style="stop-color:#ffffff;stop-opacity:1"
             id="stop3828" />
        </meshpatch>
        <meshpatch
           id="meshpatch3830">
          <stop
             path="l -60.0645,-102.453"
             id="stop3832" />
          <stop
             path="l -5.43613,72.3695"
             style="stop-color:#ffffff;stop-opacity:1"
             id="stop3834" />
          <stop
             path="l 0,0"
             style="stop-color:#000000;stop-opacity:1"
             id="stop3836" />
        </meshpatch>
        <meshpatch
           id="meshpatch3838">
          <stop
             path="l 25.403,137.518"
             id="stop3840" />
          <stop
             path="l -30.8391,-65.1483"
             style="stop-color:#000000;stop-opacity:1"
             id="stop3842" />
          <stop
             path="l 0,0"
             style="stop-color:#ffffff;stop-opacity:1"
             id="stop3844" />
        </meshpatch>
        <meshpatch
           id="meshpatch3846">
          <stop
             path="l 19.8434,-117.092"
             id="stop3848" />
          <stop
             path="l -50.6825,51.944"
             style="stop-color:#ffffff;stop-opacity:1"
             id="stop3850" />
          <stop
             path="l 0,0"
             style="stop-color:#000000;stop-opacity:1"
             id="stop3852" />
        </meshpatch>
        <meshpatch
           id="meshpatch3854">
          <stop
             path="l -68.9349,121.673"
             id="stop3856" />
          <stop
             path="l 18.2524,-69.7295"
             style="stop-color:#000000;stop-opacity:1"
             id="stop3858" />
          <stop
             path="l 0,0"
             style="stop-color:#ffffff;stop-opacity:1"
             id="stop3860" />
        </meshpatch>
        <meshpatch
           id="meshpatch3862">
          <stop
             path="l 90.4664,-76.9428"
             id="stop3864" />
          <stop
             path="l -72.214,7.21329"
             style="stop-color:#ffffff;stop-opacity:1"
             id="stop3866" />
          <stop
             path="l 0,0"
             style="stop-color:#000000;stop-opacity:1"
             id="stop3868" />
        </meshpatch>
        <meshpatch
           id="meshpatch3870">
          <stop
             path="l -131.017,48.8968"
             id="stop3872" />
          <stop
             path="l 58.8034,-41.6835"
             style="stop-color:#000000;stop-opacity:1"
             id="stop3874" />
          <stop
             path="l 0,0"
             style="stop-color:#ffffff;stop-opacity:1"
             id="stop3876" />
        </meshpatch>
        <meshpatch
           id="meshpatch3878">
          <stop
             path="l 118.759,-0.790926"
             id="stop3880" />
          <stop
             path="l -59.9558,-40.8926"
             style="stop-color:#ffffff;stop-opacity:1"
             id="stop3882" />
          <stop
             path="l 0,0"
             style="stop-color:#000000;stop-opacity:1"
             id="stop3884" />
        </meshpatch>
        <meshpatch
           id="meshpatch3886">
          <stop
             path="l -131.795,-46.7592"
             id="stop3888" />
          <stop
             path="l 71.8396,5.86666"
             style="stop-color:#000000;stop-opacity:1"
             id="stop3890" />
          <stop
             path="l 0,0"
             style="stop-color:#ffffff;stop-opacity:1"
             id="stop3892" />
        </meshpatch>
        <meshpatch
           id="meshpatch3894">
          <stop
             path="l 91.4832,75.731"
             id="stop3896" />
          <stop
             path="l -19.6435,-69.8644"
             style="stop-color:#ffffff;stop-opacity:1"
             id="stop3898" />
          <stop
             path="l 0,0"
             style="stop-color:#000000;stop-opacity:1"
             id="stop3900" />
        </meshpatch>
        <meshpatch
           id="meshpatch3902">
          <stop
             path="l -70.9049,-120.536"
             id="stop3904" />
          <stop
             path="l 51.2613,50.6718"
             style="stop-color:#000000;stop-opacity:1"
             id="stop3906" />
          <stop
             path="l 0,0"
             style="stop-color:#ffffff;stop-opacity:1"
             id="stop3908" />
        </meshpatch>
        <meshpatch
           id="meshpatch3910">
          <stop
             path="l 21.4012,116.818"
             id="stop3912" />
          <stop
             path="l 29.8601,-66.1458"
             style="stop-color:#ffffff;stop-opacity:1"
             id="stop3914" />
          <stop
             path="l 0,0"
             style="stop-color:#000000;stop-opacity:1"
             id="stop3916" />
        </meshpatch>
      </meshrow>
    </meshgradient>
    <meshgradient
       inkscape:collect="always"
       id="meshgradient3954"
       gradientUnits="userSpaceOnUse"
       x="77.125076"
       y="91.803085">
      <meshrow
         id="meshrow3956">
        <meshpatch
           id="meshpatch3958">
          <stop
             path="c 25.1319,0  50.2637,0  75.3956,0"
             style="stop-color:#ffffff;stop-opacity:1"
             id="stop3960" />
          <stop
             path="c 0,22.6458  0,45.2916  0,67.9375"
             style="stop-color:#000000;stop-opacity:1"
             id="stop3962" />
          <stop
             path="c -25.1319,0  -50.2637,0  -75.3956,0"
             style="stop-color:#ffffff;stop-opacity:1"
             id="stop3964" />
          <stop
             path="c 0,-22.6458  0,-45.2916  0,-67.9375"
             style="stop-color:#000000;stop-opacity:1"
             id="stop3966" />
        </meshpatch>
      </meshrow>
    </meshgradient>
    <linearGradient
       inkscape:collect="always"
       xlink:href="#linearGradient4018"
       id="linearGradient4022"
       x1="112.246"
       y1="106.79025"
       x2="151.98129"
       y2="106.79025"
       gradientUnits="userSpaceOnUse" />
    <meshgradient
       y="48.097416"
       x="38.092381"
       gradientUnits="userSpaceOnUse"
       id="meshgradient4198"
       inkscape:collect="always"
       gradientTransform="translate(0.53453906,0.26726953)">
      <meshrow
         id="meshrow4200">
        <meshpatch
           id="meshpatch4202">
          <stop
             path="c 50.9304,0  101.86,0  152.791,0"
             style="stop-color:#ffffff;stop-opacity:1"
             id="stop4204" />
          <stop
             path="c 0,48.6364  0,97.2728  0,145.909"
             style="stop-color:#000000;stop-opacity:1"
             id="stop4206" />
          <stop
             path="c -50.9304,0  -101.86,0  -152.791,0"
             style="stop-color:#ffffff;stop-opacity:1"
             id="stop4208" />
          <stop
             path="c 0,-48.6364  0,-97.2728  0,-145.909"
             style="stop-color:#000000;stop-opacity:1"
             id="stop4210" />
        </meshpatch>
      </meshrow>
    </meshgradient>
  </defs>
  <sodipodi:namedview
     id="base"
     pagecolor="#ffffff"
     bordercolor="#666666"
     borderopacity="1.0"
     inkscape:pageopacity="0.0"
     inkscape:pageshadow="2"
     inkscape:zoom="0.98994949"
     inkscape:cx="237.96282"
     inkscape:cy="610.71933"
     inkscape:document-units="mm"
     inkscape:current-layer="layer1"
     showgrid="false"
     inkscape:window-width="1920"
     inkscape:window-height="986"
     inkscape:window-x="-11"
     inkscape:window-y="-11"
     inkscape:window-maximized="1" />
  <metadata
     id="metadata996">
    <rdf:RDF>
      <cc:Work
         rdf:about="">
        <dc:format>image/svg+xml</dc:format>
        <dc:type
           rdf:resource="http://purl.org/dc/dcmitype/StillImage" />
        <dc:title></dc:title>
      </cc:Work>
    </rdf:RDF>
  </metadata>
  <g
     inkscape:label="Layer 1"
     inkscape:groupmode="layer"
     id="layer1">
    <rect
       style="fill:url(#meshgradient4198);fill-opacity:1;stroke:#e1203f;stroke-width:0;stroke-linecap:square;stroke-linejoin:miter;stroke-miterlimit:4;stroke-dasharray:none;stroke-dashoffset:0;stroke-opacity:1"
       id="rect4024"
       width="152.79085"
       height="145.90935"
       x="38.626919"
       y="48.364685"
       inkscape:export-xdpi="1000"
       inkscape:export-ydpi="1000" />
    <path
       style="fill:#000000;stroke:#000000;stroke-width:0.00103353;stroke-opacity:1"
       d="m 186.84668,115.83644 c 1e-5,-1.4e-4 0.0332,-0.11839 0.0738,-0.26277 l 0.0737,-0.26252 0.006,-2.7e-4 c 0.005,-2.6e-4 0.006,-1.1e-4 0.005,0.002 -0.001,0.003 -0.0256,0.0943 -0.0403,0.14863 -0.0401,0.14864 -0.0517,0.19427 -0.0532,0.20941 -10e-4,0.0108 -10e-4,0.0114 0.003,0.0301 0.002,0.0105 0.004,0.0198 0.005,0.0206 5.3e-4,7.9e-4 0.004,0.007 0.008,0.013 0.0162,0.0262 0.0388,0.041 0.0782,0.0511 0.0743,0.019 0.25951,0.0341 0.6145,0.05 0.0243,0.001 -0.0349,0.001 -0.37233,0.001 -0.22069,8e-5 -0.40126,4e-5 -0.40126,-1.1e-4 z"
       id="path76"
       inkscape:connector-curvature="0"
       inkscape:export-xdpi="1000"
       inkscape:export-ydpi="1000" />
    <path
       style="fill:#000000;stroke:#000000;stroke-width:0.00103353;stroke-opacity:1"
       d="m 186.99535,115.30688 c 5.3e-4,-0.002 0.0259,-0.0917 0.0563,-0.20025 0.0305,-0.10857 0.0561,-0.19984 0.057,-0.20283 l 0.002,-0.005 h 0.004 0.004 l -0.0369,0.1341 c -0.0203,0.0737 -0.0456,0.16631 -0.0564,0.20567 l -0.0195,0.0716 h -0.006 l -0.006,1e-5 z"
       id="path78"
       inkscape:connector-curvature="0"
       inkscape:export-xdpi="1000"
       inkscape:export-ydpi="1000" />
    <path
       sodipodi:type="star"
       style="fill:url(#meshgradient3768);stroke:#e1203f;stroke-width:0;stroke-miterlimit:4;stroke-dasharray:none;stroke-opacity:1;stroke-linejoin:miter;stroke-linecap:square;stroke-dashoffset:0;fill-opacity:1"
       id="path1674"
       sodipodi:sides="9"
       sodipodi:cx="114.89662"
       sodipodi:cy="122.11209"
       sodipodi:r1="72.573395"
       sodipodi:r2="72.078789"
       sodipodi:arg1="1.9948377"
       sodipodi:arg2="-1.6638468"
       inkscape:flatsided="false"
       inkscape:rounded="0"
       inkscape:randomized="0"
       d="M 85.036498,188.25792 108.19933,50.34512 49.504721,153.58902 155.89712,62.830466 44.570541,104.19171 184.41032,103.05434 72.542715,63.179551 180.39729,152.19555 120.33275,49.74258 145.73577,187.26038 165.57917,70.168108 96.644267,191.84159 187.11065,114.8988 56.093247,163.7956 174.85239,163.00467 43.05698,116.24543 134.54016,191.97645 63.63528,71.440338 Z"
       inkscape:transform-center-x="1.8908799"
       inkscape:transform-center-y="-4.8275458"
       inkscape:export-xdpi="1000"
       inkscape:export-ydpi="1000" />
    <path
       style="fill:url(#meshgradient3954);stroke:#000000;stroke-width:0.2;stroke-miterlimit:4;stroke-dasharray:none;fill-opacity:1"
       d="m 77.687525,155.90032 c -0.0597,-2.11197 -0.10877,-4.56716 -0.10895,-5.45598 l -0.28671,-3.92274 0.76829,2.98063 c 0.23272,0.90285 1.26326,1.2852 2.43143,1.73756 1.8515,0.71698 2.25152,0.74226 11.7834,0.74458 l 8.953275,0.002 -0.0467,-1.79015 -0.0467,-1.79014 -1.914489,-0.55088 c -2.676128,-0.76995 -3.464768,-1.06888 -5.743475,-2.17696 -2.327891,-1.13201 -4.261761,-2.3139 -6.242901,-3.81539 -2.4743,-1.87525 -5.40286,-5.31377 -6.9072,-8.10996 -1.17921,-2.19188 -1.59865,-3.27248 -2.34958,-6.05325 l -0.63791,-2.36224 -0.17119,-4.06011 c -0.16681,-3.9562 0.17359,-4.10424 0.63651,-5.83179 1.08641,-4.05435 2.09164,-6.39215 3.90424,-9.07986 1.29478,-1.9199 2.55058,-3.32333 4.72331,-5.27861 5.970168,-5.372665 13.439993,-8.235865 23.788245,-9.118125 2.30666,-0.19665 3.39927,-0.21035 6.65909,-0.0835 7.21011,0.28067 12.82906,1.49783 18.47121,4.00118 3.20204,1.4207 5.08177,2.58915 7.44588,4.628405 2.78452,2.40189 4.24432,4.13685 5.94549,7.06618 2.19874,3.78611 3.10091,6.50017 3.44843,10.37417 0.19262,2.14729 -0.022,6.27613 -0.44513,8.56313 -1.00536,5.43393 -3.85476,10.30965 -8.40854,14.38817 -2.04142,1.82837 -3.44378,2.81616 -6.01719,4.23838 -1.98201,1.09538 -3.81296,1.80158 -6.52447,2.51651 l -2.08703,0.55029 -0.0897,0.66927 c -0.0494,0.36809 -0.13786,1.18416 -0.19669,1.81348 l -0.10698,1.14421 1.14329,-0.001 c 4.89163,-0.006 17.2757,-0.32145 17.95749,-0.45713 1.21713,-0.24224 2.78061,-0.95864 3.48168,-1.59536 0.33687,-0.30596 0.78564,-0.93408 0.99725,-1.39581 l 0.62616,-2.68966 -0.13593,2.62909 c -0.0223,0.43106 0.10615,3.05448 0.10695,5.83565 l 0.001,5.0567 -1.2902,0.004 c -0.70961,0.002 -7.09321,0.0658 -14.18577,0.14103 -7.09257,0.0752 -12.92182,0.11353 -12.95391,0.0851 -0.0565,-0.0501 1.11585,-13.42268 1.17931,-13.45198 0.0173,-0.008 0.59339,-0.24822 1.28011,-0.5338 1.7757,-0.73845 6.06167,-3.32428 7.24176,-4.36913 0.54938,-0.48641 1.25374,-1.27465 1.56526,-1.75163 0.28509,-0.49123 0.42275,-1.37334 1.1064,-1.61694 0.89634,-1.24442 1.34017,-2.12065 1.97591,-3.90096 1.23299,-3.45288 1.59626,-6.09064 1.59397,-11.57429 -0.003,-7.79386 -1.41711,-12.60638 -5.23141,-17.806 -2.96557,-4.04264 -7.16468,-6.894275 -12.37595,-8.404545 -2.61763,-0.75861 -4.12769,-0.95223 -7.44602,-0.9547 -3.44611,-0.003 -5.05557,0.20712 -7.9558,1.03656 -2.27587,0.65088 -3.23427,1.07378 -5.27166,2.32616 -6.010514,3.694665 -9.435685,8.215445 -11.310785,14.928745 -0.57174,2.04698 -0.84366,4.20097 -0.952,7.54105 -0.14522,4.47718 0.31207,8.60761 1.2737,11.50454 0.18868,0.56841 0.45866,1.39889 0.59995,1.8455 0.95128,3.00688 3.846732,6.77264 6.821545,8.87192 1.333137,0.94078 4.48066,2.54485 5.48082,2.79319 0.42528,0.1056 0.79983,0.26472 0.83232,0.3536 0.0927,0.25349 1.28137,13.24281 1.21681,13.29666 -0.0317,0.0264 -6.320167,0.0722 -13.974385,0.10161 l -13.91677,0.0536 z"
       id="path23"
       inkscape:connector-curvature="0"
       sodipodi:nodetypes="sccssscccssssscsssssssssssssscccccscccssccssccsccsssssssssssscccscs"
       inkscape:export-xdpi="1000"
       inkscape:export-ydpi="1000" />
    <text
       xml:space="preserve"
       style="font-style:normal;font-weight:normal;font-size:15.68518734px;line-height:1.25;font-family:sans-serif;letter-spacing:0px;word-spacing:0px;fill:#ffffff;fill-opacity:0.75;stroke:#000000;stroke-width:0.39212969;stroke-opacity:1;"
       x="112.09742"
       y="110.23287"
       id="text27"
       transform="scale(0.86739168,1.1528817)"
       inkscape:export-xdpi="1000"
       inkscape:export-ydpi="1000"><tspan
         sodipodi:role="line"
         id="tspan25"
         x="112.09742"
         y="110.23287"
         style="font-style:normal;font-variant:normal;font-weight:normal;font-stretch:normal;font-family:Magneto;-inkscape-font-specification:Magneto;fill:#ffffff;stroke:#000000;stroke-width:0.39212969;stroke-opacity:1;fill-opacity:0.75;">Egill</tspan></text>
  </g>
</svg>
